:SAMPLES-PER-SECOND 30
:FULLY-SPECIFIED
:DEGREES
672
root  74.2815 39.003 2.01431 -27.6561 88.7851 -31.6877
RightUpLeg  -15.0068 -6.38356 -1.7939
RightLeg  8.58671 17.66 3.28822
RightFoot  3.70023 -0.00397882 0.219314
RightToes  2.21189e-009 0 -3.6325e-017
Spine  0.629065 5.03484 23.4198
Spine1  21.7589 10.4649 -13.8561
HEad  -106.341 22.2738 -70.7179
LeftShoulder1  1.24911 -4.69244 -8.04782
LeftArm  147.257 -64.2157 91.3196
LeftForeArm  4.43421 -55.0796 -15.9403
LeftHand  -13.6231 -36.4082 28.0589
RightShoulder  -1.62999 -12.0363 61.0395
RightArm  26.9154 -1.94109 126.807
RightForeArm  176.357 78.261 39.7818
RightHand  17.274 27.8571 55.1366
LeftUpLeg  -16.87 5.99832 1.54507
LeftLeg  10.672 -8.39666 -2.21728
LeftFoot  5.40641 -0.547915 3.49645
LeftToes  -3.01956e-010 3.07132e-011 1.04116e-011
673
root  74.1461 38.9283 2.05985 -20.2059 88.3611 -23.6631
RightUpLeg  -14.9686 -6.03468 -1.77179
RightLeg  9.68213 17.2563 3.28779
RightFoot  0.543913 -0.3377 3.51453
RightToes  2.21189e-009 0 -3.6325e-017
Spine  -0.623528 5.38402 22.3557
Spine1  24.7247 10.6359 -12.789
HEad  -107.758 20.9491 -71.296
LeftShoulder1  1.27328 -2.79461 -13.1588
LeftArm  145.061 -62.207 99.913
LeftForeArm  -15.7652 -51.2382 -15.1417
LeftHand  3.75922 31.3105 18.7908
RightShoulder  3.94103 -39.9383 -30.7082
RightArm  32.147 25.6867 -147.348
RightForeArm  115.709 58.6097 9.28083
RightHand  8.72812 19.1263 39.693
LeftUpLeg  -16.9672 6.49588 1.70197
LeftLeg  11.7912 -8.46586 -2.33628
LeftFoot  4.92432 -0.474861 3.11339
LeftToes  -3.01956e-010 3.07132e-011 1.04116e-011
674
root  73.9887 38.8684 2.13151 -28.8747 88.4253 -30.7455
RightUpLeg  -13.2333 -6.33617 -2.09542
RightLeg  10.3739 15.641 3.27627
RightFoot  -3.51746 -0.614358 8.37583
RightToes  2.21189e-009 0 -3.6325e-017
Spine  -1.57305 5.18856 23.5123
Spine1  26.1027 11.1466 -14.5636
HEad  -107.731 22.6375 -72.5987
LeftShoulder1  1.29693 -3.74826 -10.6926
LeftArm  151.469 -64.3795 92.47
LeftForeArm  -26.833 -51.7366 -16.0827
LeftHand  5.54707 35.8299 20.3511
RightShoulder  25.8612 -27.7963 -102.579
RightArm  23.3175 56.546 -105.817
RightForeArm  108.894 64.8565 14.8586
RightHand  6.86781 12.4624 41.857
LeftUpLeg  -15.9547 6.66984 2.0158
LeftLeg  12.6599 -8.77293 -2.40536
LeftFoot  4.73967 -0.444144 2.94015
LeftToes  -3.01956e-010 3.07132e-011 1.04116e-011
675
root  73.8888 38.8623 2.26838 -75.064 88.6313 -75.6771
RightUpLeg  -12.6877 -5.88884 -1.99397
RightLeg  14.8149 11.2835 3.08221
RightFoot  -5.74475 -0.431684 7.99011
RightToes  2.21189e-009 0 -3.6325e-017
Spine  -3.58818 5.77085 23.3591
Spine1  29.4547 10.3268 -10.9622
HEad  -106.978 22.8432 -72.9613
LeftShoulder1  1.44534 -2.72159 -16.4679
LeftArm  153.45 -65.7063 96.5231
LeftForeArm  -37.6685 -52.4808 -17.0601
LeftHand  6.25099 34.9793 23.5816
RightShoulder  26.4816 -32.0198 -94.1561
RightArm  21.9234 49.2401 -119.441
RightForeArm  105.881 62.8094 13.5115
RightHand  4.47194 7.33682 38.7668
LeftUpLeg  -15.0035 6.80032 2.64083
LeftLeg  12.9301 -9.80963 -2.58462
LeftFoot  4.74835 -0.443532 2.93304
LeftToes  -3.01956e-010 3.07132e-011 1.04116e-011
676
root  73.7917 38.8304 2.4678 -141.882 88.1182 -141.059
RightUpLeg  -12.0729 -3.76528 -2.7265
RightLeg  22.0076 7.87278 3.19045
RightFoot  -6.99987 -0.316535 7.04816
RightToes  2.21189e-009 0 -3.6325e-017
Spine  -6.37404 6.18873 22.322
Spine1  32.4313 9.0485 -7.54693
HEad  -105.972 24.0179 -73.1837
LeftShoulder1  1.51453 -2.14434 -20.3733
LeftArm  158.297 -68.9113 96.2516
LeftForeArm  -56.3644 -54.2219 -18.5579
LeftHand  4.64195 26.3137 24.1754
RightShoulder  28.8984 -34.7406 -93.8552
RightArm  20.2335 43.8111 -126.709
RightForeArm  102.624 62.6535 13.4664
RightHand  2.68726 2.79985 36.5186
LeftUpLeg  -13.9203 6.29323 2.83633
LeftLeg  13.1437 -11.0865 -2.80996
LeftFoot  4.78441 -0.390143 2.55032
LeftToes  -3.01956e-010 3.07132e-011 1.04116e-011
677
root  73.6555 38.7658 2.67376 -176.525 87.412 -174.111
RightUpLeg  -11.2033 1.11441 -4.37858
RightLeg  29.7653 7.08838 4.192
RightFoot  -8.27335 -0.243958 7.14298
RightToes  2.21189e-009 0 -3.6325e-017
Spine  -8.51119 6.7429 21.2899
Spine1  34.9558 8.74545 -5.89451
HEad  -103.709 25.9771 -73.78
LeftShoulder1  1.60224 -1.73768 -24.3292
LeftArm  160.213 -71.9741 98.9101
LeftForeArm  -102.281 -53.833 -17.2859
LeftHand  0.429944 6.77884 10.3257
RightShoulder  30.4393 -36.9791 -92.6977
RightArm  15.8413 36.583 -133.155
RightForeArm  108.984 64.8806 14.7463
RightHand  2.71187 3.09229 34.925
LeftUpLeg  -12.4555 5.39306 2.07504
LeftLeg  12.8864 -11.1001 -2.69652
LeftFoot  5.13412 -0.334698 2.09544
LeftToes  -3.01956e-010 3.07132e-011 1.04116e-011
678
root  73.4488 38.6337 2.92459 165.726 85.9122 169.984
RightUpLeg  -9.01107 4.51828 -5.70226
RightLeg  36.0667 10.3503 7.77321
RightFoot  -10.032 -0.183348 10.2194
RightToes  2.21189e-009 0 -3.6325e-017
Spine  -9.93687 7.50458 21.5842
Spine1  37.3311 8.92232 -5.02322
HEad  -99.8191 27.6165 -73.8204
LeftShoulder1  1.76683 -1.65319 -28.1766
LeftArm  156.721 -75.6486 107.146
LeftForeArm  -165.448 -54.7163 -13.5502
LeftHand  0.987979 -3.73479 -18.2415
RightShoulder  28.9944 -35.0727 -93.362
RightArm  6.63142 38.3946 -129.79
RightForeArm  124.287 60.0058 13.4602
RightHand  5.70848 12.2238 36.1807
LeftUpLeg  -11.1498 4.45464 1.34017
LeftLeg  13.2563 -11.6141 -2.79214
LeftFoot  5.32636 -0.308002 1.88232
LeftToes  -3.01956e-010 3.07132e-011 1.04116e-011
679
root  73.1368 38.4327 3.28622 159.789 84.0501 165.074
RightUpLeg  -7.26295 5.59441 -6.90295
RightLeg  41.181 14.3805 12.8604
RightFoot  -11.9044 -0.0200992 12.8334
RightToes  2.21189e-009 0 -3.6325e-017
Spine  -12.8907 7.15424 17.7068
Spine1  39.2883 6.90757 -2.54873
HEad  -96.1101 32.9121 -76.3557
LeftShoulder1  1.74323 -1.49166 -28.7313
LeftArm  144.389 -77.7918 111.858
LeftForeArm  145.316 -51.8781 -9.32838
LeftHand  -0.922612 8.5927 -33.2829
RightShoulder  29.9336 -38.8028 -88.4706
RightArm  0.0232202 45.3492 -121.019
RightForeArm  101.899 38.5075 4.09253
RightHand  5.70479 2.64613 43.4977
LeftUpLeg  -11.2459 3.20037 0.689033
LeftLeg  14.1972 -12.1969 -2.97863
LeftFoot  5.30245 -0.192683 1.09538
LeftToes  -3.01956e-010 3.07132e-011 1.04116e-011
680
root  72.7883 38.1211 3.80687 155.848 81.6118 162.103
RightUpLeg  -4.99656 6.67607 -7.7892
RightLeg  44.8008 17.1799 17.1781
RightFoot  -13.3777 0.165846 14.2302
RightToes  2.21189e-009 0 -3.6325e-017
Spine  -16.8619 4.80936 7.81545
Spine1  39.524 1.62508 3.01197
HEad  -95.5395 40.6323 -77.2232
LeftShoulder1  1.3986 -1.04836 -24.5952
LeftArm  150.773 -79.1962 87.8991
LeftForeArm  85.111 -40.8882 -5.38362
LeftHand  -4.57747 20.1977 -32.8694
RightShoulder  25.1794 -43.0882 -71.9944
RightArm  23.3908 62.9996 -128.286
RightForeArm  101.914 24.0991 0.0551375
RightHand  -2.55766 46.213 33.3963
LeftUpLeg  -12.0031 2.25108 -0.0121199
LeftLeg  16.0503 -13.3109 -3.65384
LeftFoot  4.95741 -0.0669672 0.255681
LeftToes  -3.01956e-010 3.07132e-011 1.04116e-011
681
root  72.3665 37.7821 4.37169 156.638 78.6839 163.994
RightUpLeg  -1.72036 8.02873 -7.4128
RightLeg  45.6073 18.6959 19.0866
RightFoot  -15.3268 0.381911 14.0876
RightToes  2.21189e-009 0 -3.6325e-017
Spine  -18.6122 3.42252 4.28571
Spine1  39.5281 0.263262 3.17243
HEad  -97.4081 44.1099 -78.3739
LeftShoulder1  1.45708 -1.95421 -20.3012
LeftArm  -156.069 -79.2691 40.6704
LeftForeArm  41.1071 -34.2414 -5.46712
LeftHand  -4.84762 28.688 -22.3803
RightShoulder  26.0851 -44.131 -72.4816
RightArm  47.0878 81.6076 157.937
RightForeArm  19.4766 3.82334 -10.5049
RightHand  -172.526 72.5045 176.768
LeftUpLeg  -12.9428 0.709229 -0.315178
LeftLeg  18.0395 -14.4221 -4.53887
LeftFoot  4.84279 0.0305262 -0.42071
LeftToes  -3.01956e-010 3.07132e-011 1.04116e-011
682
root  71.8148 37.5485 4.95386 158.783 75.8963 166.706
RightUpLeg  0.999578 9.45079 -6.11989
RightLeg  43.7971 20.001 19.1621
RightFoot  -17.7583 0.348504 8.50195
RightToes  2.21189e-009 0 -3.6325e-017
Spine  -18.6782 2.30866 1.17972
Spine1  37.3399 -1.32102 5.18943
HEad  -96.9438 50.099 -83.9563
LeftShoulder1  1.55834 -2.70235 -18.5631
LeftArm  -78.3317 -69.0819 8.47589
LeftForeArm  92.4568 -36.2654 -4.37905
LeftHand  -2.38972 34.9095 -7.50891
RightShoulder  24.2375 -40.4474 -73.7073
RightArm  37.2013 77.4989 175.554
RightForeArm  -62.7603 2.49426 -10.8785
RightHand  11.9983 -31.4987 -58.7735
LeftUpLeg  -13.9719 -0.687823 -0.22971
LeftLeg  18.3723 -15.8339 -5.14719
LeftFoot  5.98098 0.176541 -1.38769
LeftToes  -3.01956e-010 3.07132e-011 1.04116e-011
683
root  71.2015 37.4939 5.5236 163.892 73.3727 172.165
RightUpLeg  3.77642 10.084 -3.12126
RightLeg  38.3931 19.3127 15.5058
RightFoot  -19.8248 -0.158229 -0.347999
RightToes  2.21189e-009 0 -3.6325e-017
Spine  -14.2085 1.78558 -0.977717
Spine1  30.2179 -2.76322 9.54717
HEad  -93.5557 53.3547 -84.3719
LeftShoulder1  1.35429 -1.27602 -22.0221
LeftArm  -58.6268 -63.67 -1.05898
LeftForeArm  27.2614 -46.2628 -9.48773
LeftHand  -0.50103 30.265 -1.60287
RightShoulder  15.4837 -32.3549 -64.3999
RightArm  -46.5365 79.4392 81.0835
RightForeArm  -56.7276 5.06903 -5.34096
RightHand  -22.2792 23.363 -67.8771
LeftUpLeg  -14.4709 -1.37504 0.761633
LeftLeg  16.6708 -18.1756 -5.29218
LeftFoot  8.02665 0.401452 -2.64901
LeftToes  -3.01956e-010 3.07132e-011 1.04116e-011
684
root  70.4781 37.3616 6.16259 166.306 70.5941 175.385
RightUpLeg  5.36534 7.68646 -1.1222
RightLeg  34.5731 15.7197 11.1413
RightFoot  -21.8688 -0.553947 -4.47164
RightToes  2.21189e-009 0 -3.6325e-017
Spine  -7.62177 1.97466 -0.630466
Spine1  23.6192 -1.98719 10.1573
HEad  -86.2306 56.9343 -84.1236
LeftShoulder1  0.961558 0.399295 -24.7357
LeftArm  -46.8409 -61.8463 -1.96419
LeftForeArm  38.274 -49.1015 -10.104
LeftHand  -0.462497 33.5089 -1.0522
RightShoulder  7.75074 -20.924 -56.6881
RightArm  -49.0729 55.3061 127.597
RightForeArm  7.70668 44.9099 17.5908
RightHand  75.7147 60.5867 99.6007
LeftUpLeg  -14.6113 -1.63825 1.25858
LeftLeg  14.7893 -21.2968 -5.1696
LeftFoot  9.86196 0.76053 -4.36013
LeftToes  -3.01956e-010 3.07132e-011 1.04116e-011
685
root  69.6587 37.306 6.84341 168.176 67.6154 178.212
RightUpLeg  6.12153 4.97354 0.732873
RightLeg  31.8276 12.153 7.77917
RightFoot  -22.3566 -0.752836 -6.24456
RightToes  2.21189e-009 0 -3.6325e-017
Spine  0.00839422 2.45686 0.913375
Spine1  15.5911 -0.373097 9.55427
HEad  -78.4557 60.3958 -81.14
LeftShoulder1  0.74543 1.29289 -27.4716
LeftArm  -34.8273 -59.1915 -5.24231
LeftForeArm  36.8212 -53.9858 -12.3759
LeftHand  0.272199 33.9029 1.77971
RightShoulder  2.23384 -9.70788 -49.2194
RightArm  -50.4746 18.1956 94.8618
RightForeArm  -26.7515 79.3755 90.8163
RightHand  31.6782 46.5458 63.6409
LeftUpLeg  -13.6845 -0.577202 1.43083
LeftLeg  10.5326 -25.6731 -3.63039
LeftFoot  11.5992 1.58579 -8.15976
LeftToes  -3.01956e-010 3.07132e-011 1.04116e-011
